<?xml version="1.0" standalone="no"?>
<!DOCTYPE svg PUBLIC "-//W3C//DTD SVG 20010904//EN"
 "http://www.w3.org/TR/2001/REC-SVG-20010904/DTD/svg10.dtd">
<svg version="1.0" xmlns="http://www.w3.org/2000/svg"
 width="420.000000pt" height="420.000000pt" viewBox="0 0 420.000000 420.000000"
 preserveAspectRatio="xMidYMid meet">
<metadata>
Created by potrace 1.11, written by Peter Selinger 2001-2013
</metadata>
<g transform="translate(0.000000,420.000000) scale(0.100000,-0.100000)"
fill="#000000" stroke="none">
<path d="M396 4184 c-182 -44 -337 -201 -381 -385 -13 -56 -15 -276 -15 -1699
0 -1796 -4 -1686 60 -1815 58 -119 165 -211 297 -257 l68 -23 1675 0 1675 0
68 23 c157 55 267 164 329 328 l23 59 3 1658 c2 1462 1 1665 -13 1724 -44 188
-198 343 -386 388 -93 22 -3312 21 -3403 -1z m1336 -1585 c133 -28 270 -132
335 -254 61 -117 78 -193 78 -355 -1 -155 -15 -233 -61 -339 l-24 -53 -72 7
c-125 11 -123 9 -78 109 48 106 63 184 58 318 -4 110 -6 120 -41 192 -62 124
-162 189 -292 190 -81 1 -130 -20 -201 -86 -43 -39 -182 -234 -173 -242 2 -2
59 -31 127 -65 l123 -62 -2 183 -2 182 29 8 c16 4 32 4 36 0 4 -4 9 -109 10
-232 l3 -225 -38 -3 c-31 -3 -64 10 -185 74 -91 47 -148 72 -150 65 -14 -42
-156 -237 -210 -289 -91 -87 -167 -123 -274 -129 -251 -16 -436 120 -503 372
-37 138 -29 346 19 484 l22 66 45 -1 c24 -1 64 -7 88 -14 49 -13 49 -12 9
-115 -20 -53 -23 -78 -23 -205 1 -129 3 -152 24 -204 48 -121 149 -191 276
-190 121 0 197 56 312 232 31 46 53 85 52 86 -2 2 -52 28 -111 58 l-108 55 0
-174 0 -173 -33 0 -34 0 -6 107 c-4 58 -7 154 -7 213 0 149 8 151 200 55 71
-36 134 -65 138 -65 5 0 41 48 79 108 154 233 273 319 450 321 34 1 86 -4 115
-10z m1298 -584 l0 -355 -30 0 c-28 0 -30 3 -30 38 l0 37 -25 -32 c-30 -37
-83 -58 -131 -50 -60 10 -100 43 -133 109 -62 122 -33 293 61 366 53 42 152
31 200 -20 l28 -30 0 139 c0 77 3 143 7 146 3 4 17 7 30 7 l23 0 0 -355z m401
113 c45 -31 87 -116 91 -188 l3 -55 -162 -3 c-161 -2 -163 -3 -163 -25 1 -37
36 -103 67 -125 43 -31 93 -36 156 -18 71 20 69 21 65 -11 -4 -38 -43 -55
-127 -56 -148 -2 -231 87 -231 249 0 102 44 192 114 235 46 28 142 26 187 -3z
m304 -190 c33 -109 62 -198 65 -198 3 0 34 89 70 198 l65 197 33 3 c17 2 32 0
32 -5 0 -4 -37 -113 -82 -241 l-81 -233 -40 3 -40 3 -73 225 c-41 124 -74 231
-74 238 0 9 11 12 32 10 l32 -3 61 -197z m-1317 -230 c15 -15 16 -53 2 -79 -7
-13 -21 -19 -43 -19 -41 0 -57 15 -57 55 0 17 5 36 12 43 7 7 26 12 43 12 17
0 36 -5 43 -12z"/>
<path d="M2788 2085 c-88 -48 -96 -288 -10 -355 32 -26 92 -26 124 0 81 63 81
287 0 350 -29 23 -76 25 -114 5z"/>
<path d="M3274 2081 c-32 -19 -60 -67 -70 -120 l-6 -31 126 0 126 0 0 33 c0
17 -10 50 -23 72 -36 64 -94 82 -153 46z"/>
</g>
</svg>
